<svg width="104" height="104" viewBox="0 0 104 104" fill="none" xmlns="http://www.w3.org/2000/svg">
<path fill-rule="evenodd" clip-rule="evenodd" d="M52 104C80.7188 104 104 80.7188 104 52C104 23.2812 80.7188 0 52 0C23.2812 0 0 23.2812 0 52C0 80.7188 23.2812 104 52 104Z" fill="white"/>
<path fill-rule="evenodd" clip-rule="evenodd" d="M38.3208 52.2744C38.3208 48.3198 35.115 45.114 31.1604 45.114C27.2058 45.114 24 48.3198 24 52.2744C24 56.229 27.2058 59.4348 31.1604 59.4348C35.115 59.4348 38.3208 56.229 38.3208 52.2744Z" fill="#4D83FF"/>
<path fill-rule="evenodd" clip-rule="evenodd" d="M59.4346 31.1604C59.4346 27.2058 56.2288 24 52.2742 24C48.3196 24 45.1138 27.2058 45.1138 31.1604C45.1138 35.115 48.3196 38.3208 52.2742 38.3208C56.2288 38.3208 59.4346 35.115 59.4346 31.1604Z" fill="#4D83FF"/>
<path fill-rule="evenodd" clip-rule="evenodd" d="M80.5488 52.2744C80.5488 48.3198 77.343 45.114 73.3884 45.114C69.4338 45.114 66.228 48.3198 66.228 52.2744C66.228 56.229 69.4338 59.4348 73.3884 59.4348C77.343 59.4348 80.5488 56.229 80.5488 52.2744Z" fill="#0CBE00"/>
<path fill-rule="evenodd" clip-rule="evenodd" d="M59.4346 73.3884C59.4346 69.4338 56.2288 66.228 52.2742 66.228C48.3196 66.228 45.1138 69.4338 45.1138 73.3884C45.1138 77.343 48.3196 80.5488 52.2742 80.5488C56.2288 80.5488 59.4346 77.343 59.4346 73.3884Z" fill="#0CBE00"/>
</svg>
