<svg width="1453" height="476" viewBox="0 0 1453 476" fill="none" xmlns="http://www.w3.org/2000/svg">
<path fill-rule="evenodd" clip-rule="evenodd" d="M1442 391C1448.08 391 1453 386.075 1453 380C1453 373.925 1448.08 369 1442 369C1435.92 369 1431 373.925 1431 380C1431 386.075 1435.92 391 1442 391Z" fill="#D8D8D8"/>
<path fill-rule="evenodd" clip-rule="evenodd" d="M1366 151C1372.08 151 1377 146.075 1377 140C1377 133.925 1372.08 129 1366 129C1359.92 129 1355 133.925 1355 140C1355 146.075 1359.92 151 1366 151Z" fill="#D8D8D8"/>
<path fill-rule="evenodd" clip-rule="evenodd" d="M19.5 476C30.2696 476 39 467.27 39 456.5C39 445.73 30.2696 437 19.5 437C8.73045 437 0 445.73 0 456.5C0 467.27 8.73045 476 19.5 476Z" fill="#4D83FF"/>
<path fill-rule="evenodd" clip-rule="evenodd" d="M234.5 315C245.27 315 254 306.27 254 295.5C254 284.73 245.27 276 234.5 276C223.73 276 215 284.73 215 295.5C215 306.27 223.73 315 234.5 315Z" fill="#4D83FF"/>
<path fill-rule="evenodd" clip-rule="evenodd" d="M89.5 225C97.5081 225 104 218.508 104 210.5C104 202.492 97.5081 196 89.5 196C81.4919 196 75 202.492 75 210.5C75 218.508 81.4919 225 89.5 225Z" fill="#0CBE00"/>
<path fill-rule="evenodd" clip-rule="evenodd" d="M556.5 241C573.345 241 587 227.345 587 210.5C587 193.655 573.345 180 556.5 180C539.655 180 526 193.655 526 210.5C526 227.345 539.655 241 556.5 241Z" fill="#0CBE00"/>
<path fill-rule="evenodd" clip-rule="evenodd" d="M1358.5 39C1369.27 39 1378 30.2696 1378 19.5C1378 8.73045 1369.27 0 1358.5 0C1347.73 0 1339 8.73045 1339 19.5C1339 30.2696 1347.73 39 1358.5 39Z" fill="#4D83FF"/>
</svg>
