<svg width="52" height="52" viewBox="0 0 52 52" fill="none" xmlns="http://www.w3.org/2000/svg">
<path fill-rule="evenodd" clip-rule="evenodd" d="M33.4023 4.96798L34.6023 1.36798C34.9515 0.320319 36.0839 -0.246087 37.132 0.103131C38.18 0.45235 38.746 1.58516 38.3968 2.63282L37.1968 6.23282C36.9175 7.0711 36.1374 7.60118 35.2999 7.60118C35.0902 7.60118 34.8769 7.56798 34.6671 7.49805C33.6195 7.14844 33.0531 6.01602 33.4023 4.96798ZM24.614 2.08633C23.8327 1.30508 22.5667 1.30508 21.7855 2.08633C21.0046 2.86758 21.0046 4.1336 21.7855 4.91485L23.0976 6.22696C19.5058 18.1109 12.7245 29.6527 3.88392 38.9508L3.40657 38.4785C2.62142 37.7016 1.35501 37.7086 0.578056 38.4934C-0.198506 39.2789 -0.191866 40.5453 0.59329 41.3219L9.99329 50.6219C10.3831 51.0074 10.8913 51.2 11.3999 51.2C11.9152 51.2 12.4304 51.002 12.8214 50.6066C13.5984 49.8215 13.5917 48.5551 12.8066 47.7781L12.2945 47.2715C13.4116 46.2102 14.5589 45.1789 15.7359 44.1797L16.6433 45.634C17.5101 47.0231 18.8687 47.9777 20.4691 48.3227C22.0691 48.6676 23.7007 48.3574 25.0624 47.4492L25.0796 47.4375L29.2519 44.593C31.9917 42.7582 32.7359 39.0352 30.9105 36.2875L29.5562 34.2488L28.5679 32.7543C27.9835 31.8703 26.8109 31.5957 25.8949 32.1281C19.9238 35.5984 14.3991 39.7426 9.44993 44.4574L6.72806 41.7649C11.0722 37.2082 14.9402 32.1625 18.2374 26.7441C21.6074 21.2051 24.3081 15.3875 26.2859 9.41485L41.8109 24.9398C39.4492 25.7219 37.1011 26.6176 34.8019 27.6176C33.789 28.0582 33.3249 29.2363 33.7656 30.2492C34.0933 31.0024 34.8284 31.452 35.6007 31.452C35.8667 31.452 36.1378 31.3984 36.3972 31.2856C39.212 30.0609 42.1027 29.0016 44.998 28.1273L46.2855 29.4145C46.6757 29.8051 47.1878 30.0004 47.6995 30.0004C48.2113 30.0004 48.7234 29.8051 49.1136 29.4145C49.8949 28.6336 49.8949 27.3672 49.1136 26.5859L24.614 2.08633ZM26.2847 36.5523L27.5788 38.5008C28.1882 39.418 27.9386 40.6606 27.023 41.2715L27.016 41.2762L27.0062 41.2828L22.8363 44.1262C22.3835 44.425 21.8425 44.527 21.312 44.4125C20.7784 44.2977 20.3257 43.9793 20.0366 43.5164L18.8702 41.6469C21.2417 39.8231 23.7179 38.1215 26.2847 36.5523ZM39.6855 8.68633C38.9042 9.46719 38.9042 10.7336 39.6855 11.5149C40.0757 11.9051 40.5878 12.1004 41.0995 12.1004C41.6116 12.1004 42.1234 11.9051 42.5136 11.5149L47.4136 6.61485C48.1949 5.8336 48.1949 4.56719 47.4136 3.78633C46.6327 3.00548 45.3663 3.00548 44.5855 3.78633L39.6855 8.68633ZM46.1167 17.8027L49.8163 16.6027C50.8671 16.2621 51.4425 15.134 51.1019 14.0832C50.7613 13.0328 49.6327 12.457 48.5824 12.7981L44.8827 13.9981C43.832 14.3387 43.2562 15.4668 43.5972 16.5172C43.8714 17.3629 44.6558 17.9008 45.4992 17.9008C45.7034 17.9008 45.9117 17.8695 46.1167 17.8027Z" fill="#4D83FF"/>
</svg>
