<svg width="19" height="13" viewBox="0 0 19 13" fill="none" xmlns="http://www.w3.org/2000/svg">
<g id="icon-social-youtube" opacity="0.307129">
<path id="Shape" fill-rule="evenodd" clip-rule="evenodd" d="M15.979 0.108727C17.1178 0.172545 17.6771 0.340364 18.1925 1.25273C18.7292 2.16391 19 3.73336 19 6.49764V6.50118V6.50709C19 9.25836 18.7292 10.8396 18.1937 11.7414C17.6783 12.6537 17.119 12.8192 15.9802 12.896C14.8414 12.961 11.9807 13 9.50237 13C7.01931 13 4.15744 12.961 3.01981 12.8948C1.88338 12.818 1.32406 12.6525 0.803937 11.7402C0.273125 10.8385 0 9.25718 0 6.50591V6.50355V6.5V6.49645C0 3.73336 0.273125 2.16391 0.803937 1.25273C1.32406 0.339182 1.88456 0.172545 3.021 0.107545C4.15744 0.0319091 7.01931 0 9.50237 0C11.9807 0 14.8414 0.0319091 15.979 0.108727ZM13.0625 6.5L7.125 2.95455V10.0455L13.0625 6.5Z" fill="black"/>
</g>
</svg>
