<svg width="52" height="52" viewBox="0 0 52 52" fill="none" xmlns="http://www.w3.org/2000/svg">
<path fill-rule="evenodd" clip-rule="evenodd" d="M51.25 39.2C51.25 40.3047 50.3546 41.2 49.25 41.2C48.1453 41.2 47.25 40.3047 47.25 39.2V37.1117C47.25 34.5687 45.1808 32.5 42.6375 32.5H23.45C22.3472 32.5 21.45 33.3973 21.45 34.5C21.45 34.9738 21.6164 35.4094 21.8929 35.7527L22.2992 36.1234C22.3064 36.1302 22.3133 36.1374 22.3201 36.1447C22.3247 36.1495 22.3293 36.1543 22.3339 36.159C22.6531 36.3742 23.0371 36.5 23.45 36.5H33.45C34.5546 36.5 35.45 37.3953 35.45 38.5C35.45 39.6047 34.5546 40.5 33.45 40.5H23.45C21.7113 40.5 20.1437 39.7559 19.0468 38.5703L7.5027 28.0219C7.48512 28.0059 7.46793 27.9895 7.45074 27.9727C7.07418 27.6027 6.57731 27.4 6.05035 27.4H6.03121C5.49723 27.4051 4.99684 27.618 4.62262 27.9992C4.2484 28.3805 4.04488 28.8848 4.04996 29.4188C4.05504 29.9449 4.26129 30.4383 4.63199 30.8105L14.8086 40.2328C14.8195 40.243 14.8304 40.2531 14.841 40.2633C19.4613 44.7363 25.5472 47.2 31.9777 47.2H49.25C50.3546 47.2 51.25 48.0953 51.25 49.2C51.25 50.3047 50.3546 51.2 49.25 51.2H31.9777C28.2777 51.2 24.6629 50.4961 21.2332 49.1082C17.8109 47.7227 14.7296 45.7191 12.0754 43.1531L1.88941 33.7227L1.88921 33.7225C1.87522 33.7092 1.86122 33.696 1.84762 33.6824C0.703477 32.5598 0.0651959 31.059 0.0503521 29.4566C0.0351177 27.8539 0.644883 26.3414 1.76754 25.1977C2.8902 24.0535 4.39098 23.4152 5.99371 23.4004C6.01285 23.4 6.03238 23.4 6.05152 23.4C7.61949 23.4 9.09801 23.9984 10.2246 25.0906L17.9359 32.1367C18.5 30.8254 19.5187 29.7551 20.7921 29.1227C16.8816 26.1625 14.35 21.4715 14.35 16.2C14.35 7.26719 21.6171 0 30.55 0C39.4828 0 46.75 7.26719 46.75 16.2C46.75 18.4828 46.2839 20.691 45.3648 22.7629C44.9168 23.7727 43.7351 24.2277 42.7257 23.7801C41.716 23.3324 41.2605 22.1508 41.7086 21.141C42.3996 19.5832 42.75 17.9207 42.75 16.2C42.75 9.47305 37.2769 4 30.55 4C23.823 4 18.35 9.47305 18.35 16.2C18.35 22.927 23.823 28.4 30.55 28.4C32.5418 28.4 34.5172 27.9102 36.2629 26.9832C37.2382 26.4652 38.4492 26.8359 38.9671 27.8113C39.0843 28.0324 39.1539 28.2656 39.1832 28.5H42.6375C47.3863 28.5 51.25 32.3633 51.25 37.1117V39.2ZM28.55 24V24.2C28.55 25.3047 29.4453 26.2 30.55 26.2C31.6546 26.2 32.55 25.3047 32.55 24.2V23.859C34.5589 23.3527 36.05 21.541 36.05 19.3902V18.5883C36.05 16.052 33.9683 13.9883 31.4097 13.9883H30.0793C29.7425 13.9883 29.4472 13.6668 29.4472 13.3V13.2156C29.4472 12.8645 29.7187 12.6 30.0793 12.6H32.85C33.9547 12.6 34.85 11.7047 34.85 10.6C34.85 9.49531 33.9547 8.6 32.85 8.6H32.55V8.3C32.55 7.19531 31.6546 6.3 30.55 6.3C29.4453 6.3 28.55 7.19531 28.55 8.3V8.85938C26.7453 9.49063 25.4472 11.2043 25.4472 13.2156V13.3C25.4472 15.8852 27.525 17.9883 30.0793 17.9883H31.4097C31.7746 17.9883 32.05 18.2461 32.05 18.5883V19.3898C32.05 19.7379 31.7746 20 31.4097 20H27.35C26.2453 20 25.35 20.8953 25.35 22C25.35 23.1047 26.2453 24 27.35 24H28.55Z" fill="#4D83FF"/>
</svg>
