<svg width="52" height="52" viewBox="0 0 52 52" fill="none" xmlns="http://www.w3.org/2000/svg">
<path fill-rule="evenodd" clip-rule="evenodd" d="M44.5953 12.7047C44.3187 12.4281 44.0363 12.1605 43.7484 11.9004L45.3719 9.83633C46.0551 8.96836 45.9047 7.71094 45.0367 7.02812C44.1684 6.34492 42.9109 6.49531 42.2281 7.36367L40.5551 9.49023C37.5867 7.63828 34.2285 6.50898 30.7 6.19297V4H32.8C33.9047 4 34.8 3.10469 34.8 2C34.8 0.895313 33.9047 0 32.8 0H24.8C23.6953 0 22.8 0.895313 22.8 2C22.8 3.10469 23.6953 4 24.8 4H26.7V6.18477C18.4875 6.89375 11.2582 12.0422 7.94375 19.7062C7.50547 20.7199 7.97188 21.8973 8.98555 22.3359C9.99922 22.7742 11.177 22.3078 11.6152 21.2941C14.5562 14.4937 21.2426 10.1 28.65 10.1C38.8785 10.1 47.2 18.4215 47.2 28.65C47.2 32.3023 46.1238 35.8426 44.0875 38.8883C43.4734 39.8066 43.7203 41.0488 44.6387 41.6625C44.9801 41.891 45.366 42.0004 45.748 42C46.3938 42 47.027 41.6883 47.4129 41.1113C49.8902 37.4055 51.2 33.0965 51.2 28.65C51.2 22.6266 48.8543 16.9641 44.5953 12.7047ZM2 30.1H15.9C17.0047 30.1 17.9 29.2047 17.9 28.1C17.9 26.9953 17.0047 26.1 15.9 26.1H2C0.895313 26.1 0 26.9953 0 28.1C0 29.2047 0.895313 30.1 2 30.1ZM14.9 36.1C14.9 37.2047 14.0047 38.1 12.9 38.1H2C0.895313 38.1 0 37.2047 0 36.1C0 34.9953 0.895313 34.1 2 34.1H12.9C14.0047 34.1 14.9 34.9953 14.9 36.1ZM2 42.1H9.9C11.0047 42.1 11.9 42.9953 11.9 44.1C11.9 45.2047 11.0047 46.1 9.9 46.1H2C0.895313 46.1 0 45.2047 0 44.1C0 42.9953 0.895313 42.1 2 42.1ZM28.65 47.2C32.1363 47.2 35.3539 46.3215 38.2137 44.5895C39.1586 44.0172 40.3883 44.3187 40.9605 45.2637C41.5328 46.2086 41.2309 47.4383 40.2863 48.0105C36.8418 50.0973 32.818 51.2 28.65 51.2C24.318 51.2 20.1848 50.059 16.6973 47.9008C15.7582 47.3191 15.468 46.0867 16.0492 45.1473C16.6309 44.2082 17.8633 43.918 18.8027 44.4992C21.657 46.266 25.0621 47.2 28.65 47.2ZM24.8684 33.0613C22.4285 30.8562 22.2336 27.0734 24.434 24.6285C25.9836 22.9074 33.432 18.4164 35.6777 17.0809C36.3906 16.657 37.2918 16.7172 37.9418 17.2324C38.5922 17.7473 38.857 18.6105 38.6074 19.4016L38.6074 19.4018C38.5708 19.5173 37.7275 22.1865 36.6883 25.1043C34.7395 30.5762 33.8793 31.977 33.2953 32.6262C32.2281 33.8117 30.7637 34.5102 29.1715 34.5922C29.0664 34.5977 28.9617 34.6004 28.8574 34.6004C27.3797 34.6 25.9734 34.0602 24.8684 33.0613ZM28.9652 30.5973C28.4422 30.6242 27.9398 30.4453 27.5504 30.0934C26.7434 29.3645 26.6793 28.1133 27.407 27.3047C27.9129 26.7426 30.2715 25.1434 33.0547 23.3824C33.0305 23.4513 33.0061 23.5201 32.9816 23.5891C32.9729 23.6137 32.9642 23.6383 32.9555 23.6629C31.0988 28.8875 30.4016 29.8508 30.3172 29.9559C29.966 30.3426 29.4863 30.5703 28.9652 30.5973Z" fill="#4D83FF"/>
</svg>
