<svg width="52" height="52" viewBox="0 0 52 52" fill="none" xmlns="http://www.w3.org/2000/svg">
<path fill-rule="evenodd" clip-rule="evenodd" d="M2 31.5333C0.8954 31.5333 0 30.6379 0 29.5333V17.7333C0 7.9551 7.9551 0 17.7333 0H33.4667C37.6608 0 41.792 1.4753 45.0951 4.3478V2C45.0951 0.8954 45.9905 0 47.0951 0C48.1997 0 49.0951 0.8954 49.0951 2V9.8667C49.0951 10.954 48.2146 11.8539 47.1183 11.8655C47.0079 11.8669 44.8302 11.8668 42.5384 11.8667C41.3802 11.8666 40.1928 11.8666 39.2284 11.8667C38.1238 11.8667 37.2284 10.9713 37.2284 9.8667C37.2284 8.7621 38.1238 7.8667 39.2284 7.8667H43.0117C40.4803 5.4262 37.0631 4 33.4667 4H17.7333C10.1607 4 4 10.1607 4 17.7333V29.5333C4 30.6379 3.1046 31.5333 2 31.5333ZM49.2 19.6667C48.0954 19.6667 47.2 20.5621 47.2 21.6667V33.4667C47.2 41.0393 41.0393 47.2 33.4667 47.2H17.7333C14.1368 47.2 10.7197 45.7738 8.1882 43.3333H11.9714C13.076 43.3333 13.9714 42.4379 13.9714 41.3333C13.9714 40.2287 13.076 39.3333 11.9714 39.3333C9.70517 39.3336 8.08705 39.3333 6.92815 39.3331H6.92715H6.92615C4.11206 39.3325 4.00755 39.3325 3.90432 39.3439L3.8799 39.3467C2.8635 39.461 2.1047 40.3278 2.1047 41.3333V49.2C2.1047 50.3046 3.0001 51.2 4.1047 51.2C5.2093 51.2 6.1047 50.3046 6.1047 49.2V46.8522C9.4078 49.7245 13.5394 51.2 17.7333 51.2H33.4666C43.2448 51.2 51.2 43.2449 51.2 33.4667V21.6667C51.2 20.5621 50.3046 19.6667 49.2 19.6667ZM33.28 30.4579C33.276 31.334 33.2716 32.1729 33.2672 32.937C33.2608 34.0427 34.1548 34.9485 35.2673 34.9485C36.3664 34.9485 37.2608 34.0606 37.2671 32.96C37.2705 32.3539 37.2753 31.4795 37.2802 30.4566C38.3516 30.4189 39.2085 29.5385 39.2085 28.4579C39.2085 27.3827 38.3599 26.5056 37.2959 26.4598C37.3064 22.8483 37.3052 19.1615 37.2602 18.622C37.0278 15.8319 33.935 14.6227 31.9972 17.0005C31.117 18.0805 27.1099 25.3037 25.9028 27.4918C25.1688 28.8224 26.1327 30.4579 27.654 30.4579H33.28ZM33.2951 26.4579C33.2991 25.0428 33.3014 23.6743 33.301 22.4995C32.6394 23.6463 31.8586 25.0229 31.0545 26.4579H33.2951ZM14.0823 30.8964C14.8834 29.8471 16.2799 28.0179 18.6777 24.5919C19.9534 22.7691 19.999 21.8781 20.0052 21.7565C20.0056 21.7482 20.0059 21.7435 20.0063 21.7423C19.9517 20.7469 19.1247 19.9538 18.1159 19.9538C17.2129 19.9538 16.4317 20.5948 16.2582 21.478C16.0453 22.5618 14.9948 23.2681 13.9102 23.055C12.8264 22.8421 12.1203 21.7909 12.3332 20.707C12.8742 17.9528 15.3061 15.9538 18.1159 15.9538C21.3654 15.9538 24.0092 18.5975 24.0092 21.8471C24.0092 23.5256 22.9177 25.51 21.955 26.8855C20.5569 28.8831 19.4787 30.3667 18.6637 31.4648C19.8933 31.4603 21.2977 31.4485 22.6289 31.4318C23.7318 31.4203 24.64 32.302 24.6539 33.4065C24.6678 34.511 23.7836 35.4176 22.6792 35.4315C22.4337 35.4346 22.1702 35.4381 21.8934 35.4419C19.1023 35.4796 14.9594 35.5356 14.2681 35.3051C13.0311 34.8928 12.2927 33.4173 13.3455 31.8843C13.502 31.6564 13.7368 31.3489 14.0823 30.8964Z" fill="#4D83FF"/>
</svg>
