<svg width="52" height="45" viewBox="0 0 52 45" fill="none" xmlns="http://www.w3.org/2000/svg">
<path fill-rule="evenodd" clip-rule="evenodd" d="M25.6003 4.16309C27.6378 2.54004 31.6968 0.0498047 37.4167 0.0498047C54.2054 0.0498047 60.9843 30.1541 26.3421 43.9689C25.8609 44.1607 25.33 44.1568 24.8581 43.9689C-9.76882 30.16 -3.01999 0.0498047 13.7835 0.0498047C19.5035 0.0498047 23.5624 2.54004 25.6003 4.16309ZM15.5058 34.4564C18.3902 36.5252 21.7609 38.3604 25.6003 39.9471C29.4394 38.3604 32.8101 36.5252 35.6945 34.4564C29.3995 31.1236 21.7878 31.1307 15.5058 34.4564ZM19.7253 22.0807C19.7253 18.8412 22.3609 16.2057 25.6003 16.2057C28.8394 16.2057 31.4749 18.8412 31.4749 22.0807C31.4749 25.3201 28.8394 27.9553 25.6003 27.9553C22.3609 27.9553 19.7253 25.3201 19.7253 22.0807ZM32.6952 28.9494C34.9175 29.5877 37.0476 30.5283 39.037 31.7564C52.7523 19.2299 47.1253 4.05527 37.4167 4.05527C30.8804 4.05527 27.1285 8.15527 27.091 8.19629C26.2687 9.11348 24.8835 9.07285 24.1128 8.20059C24.0507 8.13418 23.0792 7.10762 21.3546 6.10176C19.0261 4.74395 16.4788 4.05527 13.7835 4.05527C4.10697 4.05527 -1.57936 19.2053 12.1632 31.7564C14.1527 30.5283 16.2827 29.5877 18.505 28.9494C16.782 27.1701 15.7195 24.7471 15.7195 22.0807C15.7195 16.6326 20.1519 12.2002 25.6003 12.2002C34.2734 12.2002 38.7519 22.6951 32.6952 28.9494Z" fill="#4D83FF"/>
</svg>
