<svg width="36" height="52" viewBox="0 0 36 52" fill="none" xmlns="http://www.w3.org/2000/svg">
<path fill-rule="evenodd" clip-rule="evenodd" d="M6 0H30C33.3084 0 36 2.6916 36 6V45.2C36 48.5084 33.3084 51.2 30 51.2H6C2.6916 51.2 0 48.5084 0 45.2V6C0 2.6916 2.6916 0 6 0ZM30 47.2C31.1028 47.2 32 46.3028 32 45.2V6C32 4.8972 31.1028 4 30 4H26.4371L26.0205 5.2379C25.7467 6.0518 24.9837 6.6 24.125 6.6H11.875C11.0163 6.6 10.2533 6.0518 9.9795 5.2379L9.5629 4H6C4.8972 4 4 4.8972 4 6V45.2C4 46.3028 4.8972 47.2 6 47.2H30Z" fill="#4D83FF"/>
</svg>
