<svg width="18" height="17" viewBox="0 0 18 17" fill="none" xmlns="http://www.w3.org/2000/svg">
<g id="icon-social-linkedin" opacity="0.307129">
<rect id="Rectangle" x="0.222168" y="5.54102" width="3.86307" height="11.452" fill="black"/>
<path id="Path" d="M16.7635 6.58702C15.952 5.71257 14.8787 5.27527 13.5443 5.27527C13.0526 5.27527 12.6057 5.33497 12.2037 5.45446C11.8018 5.57386 11.4624 5.74139 11.1853 5.95713C10.9083 6.17287 10.6877 6.37314 10.524 6.55796C10.3682 6.7335 10.216 6.93799 10.0674 7.16931V5.54087H6.21582L6.22763 6.09564C6.23554 6.46555 6.23944 7.60569 6.23944 9.5162C6.23944 11.4269 6.23165 13.9191 6.21598 16.993H10.0674V10.6024C10.0674 10.2096 10.1101 9.89761 10.1961 9.66629C10.3601 9.27318 10.6076 8.94407 10.9395 8.67839C11.2713 8.41238 11.6829 8.27949 12.1747 8.27949C12.8456 8.27949 13.3394 8.50867 13.6556 8.96706C13.9716 9.42541 14.1296 10.0591 14.1296 10.8681V16.9927H17.981V10.4292C17.9807 8.74185 17.5752 7.46119 16.7635 6.58702Z" fill="black"/>
<path id="Path_2" d="M2.17734 0.0286865C1.52967 0.0286865 1.00488 0.215646 0.602857 0.589201C0.20087 0.962837 0 1.43455 0 2.00477C0 2.56703 0.195089 3.03712 0.585308 3.41452C0.975403 3.79196 1.49056 3.98078 2.13048 3.98078H2.15389C2.80952 3.98078 3.33832 3.79212 3.74019 3.41452C4.14205 3.03712 4.33907 2.56719 4.33132 2.00477C4.32353 1.43459 4.12438 0.962837 3.73428 0.589201C3.34423 0.215484 2.82506 0.0286865 2.17734 0.0286865Z" fill="black"/>
</g>
</svg>
