<svg width="10" height="17" viewBox="0 0 10 17" fill="none" xmlns="http://www.w3.org/2000/svg">
<g id="icon-social-facebook" opacity="0.307129">
<path id="Path" d="M9.45088 0.00350515L7.09899 0C4.45672 0 2.74918 1.62727 2.74918 4.1459V6.05743H0.38446C0.18012 6.05743 0.0146484 6.21131 0.0146484 6.40111V9.17071C0.0146484 9.36052 0.180309 9.51422 0.38446 9.51422H2.74918V16.5028C2.74918 16.6926 2.91465 16.8463 3.11899 16.8463H6.20427C6.40861 16.8463 6.57408 16.6924 6.57408 16.5028V9.51422H9.33899C9.54333 9.51422 9.7088 9.36052 9.7088 9.17071L9.70993 6.40111C9.70993 6.30998 9.67087 6.2227 9.60163 6.15821C9.53238 6.09371 9.43804 6.05743 9.33993 6.05743H6.57408V4.437C6.57408 3.65815 6.77389 3.26277 7.86616 3.26277L9.4505 3.26225C9.65465 3.26225 9.82012 3.10837 9.82012 2.91874V0.34701C9.82012 0.157557 9.65484 0.00385567 9.45088 0.00350515Z" fill="black"/>
</g>
</svg>
